<?xml version="1.0" encoding="UTF-8"?>
<svg width="1000px" height="1000px" viewBox="0 0 1000 1000" version="1.1" xmlns="http://www.w3.org/2000/svg" xmlns:xlink="http://www.w3.org/1999/xlink">
    <title>Kenya Tech Pattern</title>
    <g id="Kenya-Tech-Pattern" stroke="none" stroke-width="1" fill="none" fill-rule="evenodd">
        <!-- Kenya Map Silhouette -->
        <path d="M500,100 C400,150 300,250 250,350 C200,450 150,550 200,650 C250,750 200,850 300,900 C400,950 500,950 600,900 C700,850 750,750 700,650 C650,550 600,450 650,350 C700,250 750,150 650,100 C550,50 500,50 500,100 Z" id="Kenya-Silhouette" stroke="#41D6FF" stroke-width="2" opacity="0.3"></path>
        
        <!-- Connection Lines -->
        <line x1="100" y1="100" x2="300" y2="200" stroke="#41D6FF" stroke-width="1" opacity="0.5"></line>
        <line x1="200" y1="300" x2="400" y2="150" stroke="#41D6FF" stroke-width="1" opacity="0.5"></line>
        <line x1="300" y1="500" x2="500" y2="350" stroke="#41D6FF" stroke-width="1" opacity="0.5"></line>
        <line x1="600" y1="200" x2="800" y2="100" stroke="#41D6FF" stroke-width="1" opacity="0.5"></line>
        <line x1="700" y1="400" x2="900" y2="300" stroke="#41D6FF" stroke-width="1" opacity="0.5"></line>
        <line x1="500" y1="600" x2="700" y2="500" stroke="#41D6FF" stroke-width="1" opacity="0.5"></line>
        <line x1="200" y1="700" x2="400" y2="600" stroke="#41D6FF" stroke-width="1" opacity="0.5"></line>
        <line x1="300" y1="900" x2="500" y2="800" stroke="#41D6FF" stroke-width="1" opacity="0.5"></line>
        <line x1="600" y1="700" x2="800" y2="800" stroke="#41D6FF" stroke-width="1" opacity="0.5"></line>
        <line x1="700" y1="900" x2="900" y2="800" stroke="#41D6FF" stroke-width="1" opacity="0.5"></line>
        
        <!-- Network Nodes -->
        <circle cx="300" cy="200" r="5" fill="#41D6FF" opacity="0.7"></circle>
        <circle cx="400" cy="150" r="5" fill="#41D6FF" opacity="0.7"></circle>
        <circle cx="500" cy="350" r="5" fill="#41D6FF" opacity="0.7"></circle>
        <circle cx="600" cy="200" r="5" fill="#41D6FF" opacity="0.7"></circle>
        <circle cx="700" cy="400" r="5" fill="#41D6FF" opacity="0.7"></circle>
        <circle cx="500" cy="600" r="5" fill="#41D6FF" opacity="0.7"></circle>
        <circle cx="400" cy="600" r="5" fill="#41D6FF" opacity="0.7"></circle>
        <circle cx="500" cy="800" r="5" fill="#41D6FF" opacity="0.7"></circle>
        <circle cx="600" cy="700" r="5" fill="#41D6FF" opacity="0.7"></circle>
        <circle cx="800" cy="800" r="10" fill="#41D6FF" opacity="0.3"></circle>
        <circle cx="200" cy="300" r="10" fill="#41D6FF" opacity="0.3"></circle>
        <circle cx="300" cy="500" r="10" fill="#41D6FF" opacity="0.3"></circle>
        <circle cx="800" cy="100" r="10" fill="#41D6FF" opacity="0.3"></circle>
        <circle cx="900" cy="300" r="10" fill="#41D6FF" opacity="0.3"></circle>
        <circle cx="700" cy="500" r="10" fill="#41D6FF" opacity="0.3"></circle>
        <circle cx="200" cy="700" r="10" fill="#41D6FF" opacity="0.3"></circle>
        <circle cx="300" cy="900" r="10" fill="#41D6FF" opacity="0.3"></circle>
        <circle cx="700" cy="900" r="10" fill="#41D6FF" opacity="0.3"></circle>
        <circle cx="900" cy="800" r="10" fill="#41D6FF" opacity="0.3"></circle>
        
        <!-- Central Hub -->
        <circle cx="500" cy="500" r="20" fill="#41D6FF" opacity="0.2"></circle>
        <circle cx="500" cy="500" r="15" fill="#41D6FF" opacity="0.3"></circle>
        <circle cx="500" cy="500" r="10" fill="#41D6FF" opacity="0.5"></circle>
        
        <!-- Connecting to Central Hub -->
        <line x1="300" y1="200" x2="500" y2="500" stroke="#41D6FF" stroke-width="1" opacity="0.3"></line>
        <line x1="400" y1="150" x2="500" y2="500" stroke="#41D6FF" stroke-width="1" opacity="0.3"></line>
        <line x1="500" y1="350" x2="500" y2="500" stroke="#41D6FF" stroke-width="1" opacity="0.3"></line>
        <line x1="600" y1="200" x2="500" y2="500" stroke="#41D6FF" stroke-width="1" opacity="0.3"></line>
        <line x1="700" y1="400" x2="500" y2="500" stroke="#41D6FF" stroke-width="1" opacity="0.3"></line>
        <line x1="500" y1="600" x2="500" y2="500" stroke="#41D6FF" stroke-width="1" opacity="0.3"></line>
        <line x1="400" y1="600" x2="500" y2="500" stroke="#41D6FF" stroke-width="1" opacity="0.3"></line>
        <line x1="500" y1="800" x2="500" y2="500" stroke="#41D6FF" stroke-width="1" opacity="0.3"></line>
        <line x1="600" y1="700" x2="500" y2="500" stroke="#41D6FF" stroke-width="1" opacity="0.3"></line>
    </g>
</svg>
