<?xml version="1.0" encoding="UTF-8"?>
<svg width="24" height="24" viewBox="0 0 24 24" fill="none" xmlns="http://www.w3.org/2000/svg">
  <path d="M18.378 11.095c-.03-2.803 2.292-4.167 2.397-4.232-1.308-1.912-3.342-2.174-4.063-2.2-1.715-.176-3.364 1.018-4.238 1.018-.885 0-2.236-.996-3.683-.969-1.878.028-3.627 1.1-4.593 2.779-1.98 3.432-.504 8.477 1.397 11.247.945 1.359 2.057 2.879 3.517 2.824 1.419-.057 1.952-.911 3.667-.911 1.707 0 2.2.911 3.688.879 1.53-.024 2.494-1.38 3.416-2.749 1.096-1.583 1.54-3.134 1.558-3.214-.036-.015-2.976-1.14-3.006-4.532z" fill="#ffffff"/>
  <path d="M15.847 3.343c.773-.946 1.3-2.242 1.153-3.55-1.116.048-2.503.752-3.305 1.678-.714.832-1.347 2.17-1.183 3.442 1.253.095 2.53-.625 3.335-1.57z" fill="#ffffff"/>
</svg>
