<svg xmlns="http://www.w3.org/2000/svg" viewBox="0 0 24 24" fill="none" stroke="currentColor" stroke-width="2" stroke-linecap="round" stroke-linejoin="round">
  <path d="M21.198 2.433a2.242 2.242 0 0 0-1.022.215l-16.91 6.763a1.45 1.45 0 0 0-.6 2.3l4.711 3.822-.34 4.043a1.9 1.9 0 0 0 .898 1.654l.394.193a1.9 1.9 0 0 0 2.013-.337l2.062-2.062 3.104 2.338a2.447 2.447 0 0 0 2.031.376 2.45 2.45 0 0 0 1.58-1.711l3.34-16.088a2.248 2.248 0 0 0-1.26-2.506z"></path>
  <line x1="9" y1="14" x2="12" y2="17"></line>
</svg>